<?xml version="1.0" standalone="no"?>
<!DOCTYPE svg PUBLIC "-//W3C//DTD SVG 20010904//EN"
 "http://www.w3.org/TR/2001/REC-SVG-20010904/DTD/svg10.dtd">
<svg version="1.0" xmlns="http://www.w3.org/2000/svg"
 width="300.000000pt" height="297.000000pt" viewBox="0 0 300.000000 297.000000"
 preserveAspectRatio="xMidYMid meet">
<g transform="translate(0.000000,297.000000) scale(0.100000,-0.100000)"
fill="#ffffff" stroke="none">
<path d="M1394 2716 c-93 -21 -199 -69 -306 -139 -53 -34 -201 -129 -330 -212
-128 -82 -252 -167 -275 -188 -101 -93 -136 -193 -136 -387 2 -291 85 -614
205 -787 103 -151 406 -380 663 -503 239 -115 379 -153 555 -154 96 0 124 4
172 23 108 42 218 171 318 371 51 103 160 284 268 448 131 199 172 301 172
433 0 200 -144 475 -372 715 -175 183 -357 299 -563 360 -111 32 -277 41 -371
20z m-353 -519 c70 -34 142 -109 177 -185 27 -56 27 -59 30 -314 2 -142 7
-258 12 -258 5 0 48 53 96 118 48 64 177 237 287 385 l199 267 129 0 c71 0
129 -3 129 -6 0 -3 -31 -47 -69 -98 -38 -51 -74 -102 -80 -114 -14 -26 -15
-717 -1 -776 10 -45 34 -81 73 -110 21 -15 47 -21 117 -24 l90 -4 0 -94 0 -93
-37 -10 c-21 -6 -71 -11 -111 -11 -130 0 -250 56 -317 148 -59 81 -68 129 -74
389 l-6 232 -258 -348 c-142 -192 -269 -360 -282 -375 -23 -25 -27 -26 -150
-26 -69 0 -125 3 -125 7 0 3 28 45 63 92 l62 86 3 393 c2 267 -1 406 -9 434
-22 85 -95 128 -214 128 l-60 0 2 72 c1 40 2 81 3 91 0 29 38 37 155 34 96 -3
117 -6 166 -30z"/>
</g>
</svg>
